<svg t="1685430035320" class="icon" viewBox="0 0 1024 1024" version="1.1"
    xmlns="http://www.w3.org/2000/svg" p-id="20810" width="128" height="128">
    <path
        d="M848.896 311.296c20.48 50.688 31.232 105.984 31.232 164.352 0 243.2-197.632 440.832-440.832 440.832-39.424 0-77.312-5.12-113.664-14.848 59.392 34.816 128.512 54.784 202.24 54.784 222.208 0 401.92-180.224 401.92-401.92 1.024-91.136-29.696-175.616-80.896-243.2z"
        fill="#F8B62D" p-id="20811"></path>
    <path
        d="M881.152 475.648c0-57.856-11.264-113.664-31.232-164.352-73.216-96.768-189.44-159.232-320.512-159.232-222.208 0-401.92 180.224-401.92 401.92 0 147.968 80.384 277.504 199.168 347.136 36.352 9.728 74.24 14.848 113.664 14.848 243.2 0.512 440.832-196.608 440.832-440.32z"
        fill="#FCEE21" p-id="20812"></path>
    <path
        d="M509.44 970.752c-240.128 0-435.2-195.072-435.2-435.2 0-66.048 14.848-130.048 43.008-189.44 3.072-6.656 11.776-9.728 18.432-6.656 6.656 3.072 9.728 11.776 6.656 18.432-26.624 55.296-39.936 114.688-39.936 177.152 0 224.768 182.784 407.552 407.552 407.552s407.552-182.784 407.552-407.552-182.784-407.552-407.552-407.552c-97.28 0-192.512 35.328-266.24 99.328-5.632 5.12-14.848 4.096-19.968-1.024-5.12-5.632-4.096-14.848 1.024-19.968 78.336-68.608 179.2-105.984 284.16-105.984 240.128 0 435.2 195.072 435.2 435.2s-194.56 435.712-434.688 435.712z"
        fill="#664C2F" p-id="20813"></path>
    <path
        d="M325.632 247.296c-11.264 5.632-20.992 12.288-29.184 21.504-5.632 6.144-6.656 17.408 0 23.04 6.144 5.632 16.896 6.656 23.04 0l5.632-5.632c0.512-0.512 2.048-1.024 2.56-2.56 2.56-2.048-3.072 2.048 1.024-1.024 4.096-3.072 8.704-5.632 12.8-7.168 8.192-3.584 10.24-15.36 5.632-22.016-4.096-8.704-12.8-10.24-21.504-6.144zM263.168 305.152C239.104 327.68 221.184 354.816 209.92 385.024c-7.168 19.968 24.576 28.16 31.232 8.704 9.216-25.088 24.576-47.616 44.544-65.536 15.872-14.336-7.168-36.864-22.528-23.04z"
        fill="#FFFFFF" p-id="20814"></path>
    <path
        d="M157.696 308.224c-3.072 0-6.144-1.024-8.704-3.072-6.144-5.12-6.656-13.824-2.56-19.968l33.792-43.008c5.12-6.144 13.824-6.656 19.968-2.56 6.144 5.12 6.656 13.824 2.56 19.968L168.96 303.104c-3.072 3.584-7.68 5.12-11.264 5.12z"
        fill="#664C2F" p-id="20815"></path>
    <path
        d="M559.616 409.6c0 25.088 20.48 46.08 46.08 46.08 25.088 0 46.08-20.48 46.08-46.08 0-25.088-20.48-46.08-46.08-46.08-26.112 0-46.08 20.48-46.08 46.08 0-0.512 0-0.512 0 0zM560.128 693.248c0 25.088 20.48 45.568 45.568 45.568s45.568-20.48 45.568-45.568-20.48-45.568-45.568-45.568c-25.088-1.024-45.568 19.968-45.568 45.568zM343.552 550.4c0 24.576 19.968 45.056 45.056 45.056 24.576 0 45.056-19.968 45.056-45.056s-19.968-45.056-45.056-45.056c-25.6 0-45.056 20.48-45.056 45.056z"
        fill="#FFFFFF" p-id="20816"></path>
    <path
        d="M424.96 516.096c-4.096 0-9.216-2.56-11.776-6.144-4.096-6.656-2.56-14.848 4.096-18.944l121.344-79.872c6.656-4.096 14.848-2.56 18.944 4.096s2.56 14.848-4.096 18.944l-120.832 78.848c-2.048 2.048-5.12 3.072-7.68 3.072zM542.208 658.944c-2.56 0-5.12-0.512-6.656-2.048L418.304 588.8c-6.656-3.584-8.704-12.288-5.12-18.944 3.584-6.656 12.288-8.704 18.944-5.12l117.248 68.608c6.656 3.584 8.704 12.288 5.12 18.944-3.072 4.096-8.192 6.656-12.288 6.656z"
        fill="#664C2F" p-id="20817"></path>
    <path
        d="M597.504 468.48c-39.936 0-72.704-32.768-72.704-72.704S557.568 322.56 597.504 322.56 670.72 355.328 670.72 395.264c-1.024 40.448-33.28 73.216-73.216 73.216z m0-117.248c-24.576 0-44.544 19.968-44.544 44.544s19.968 44.544 44.544 44.544 44.544-19.968 44.544-44.544c0-24.576-19.456-44.544-44.544-44.544z m0 402.944c-39.936 0-72.704-32.768-72.704-72.704s32.768-72.704 72.704-72.704 72.704 32.768 72.704 72.704c-0.512 40.448-32.768 72.704-72.704 72.704z m0-116.736c-24.576 0-44.544 19.968-44.544 44.544s19.968 44.544 44.544 44.544 44.544-19.968 44.544-44.544-19.456-44.544-44.544-44.544z m-219.136-25.088c-39.936 0-72.704-32.768-72.704-72.704s32.768-72.704 72.704-72.704 72.704 32.768 72.704 72.704-32.256 72.704-72.704 72.704z m0-117.248c-24.576 0-44.544 19.968-44.544 44.544s19.968 44.544 44.544 44.544 44.544-19.968 44.544-44.544-19.456-44.544-44.544-44.544z"
        fill="#664C2F" p-id="20818"></path>
</svg>