<svg t="1685434590078" class="icon" viewBox="0 0 1024 1024" version="1.1"
    xmlns="http://www.w3.org/2000/svg" p-id="26984" width="64" height="64">
    <path
        d="M9.8 512.6c0 277.6 225 502.6 502.6 502.6s502.6-225 502.6-502.6S790 10 512.4 10 9.8 235 9.8 512.6"
        fill="#FAFBFF" p-id="26985"></path>
    <path
        d="M512.8 242c-10.3 0-20.5 0.6-30.5 1.8-24.5 2.8-48 8.9-70 17.8 0 0 181.9 180 186.8 186.7v-192c-5.4-1.9-11-3.5-16.6-5-22.2-6-45.5-9.3-69.7-9.3z m0 0"
        fill="#E67358" p-id="26986"></path>
    <path
        d="M702.8 320.3c-7.3-7.3-15-14-22.8-20.3-19.3-15.4-40.2-27.6-62.1-37 0 0 1.4 255.9 0 264.1l135.8-135.8c-2.6-5.2-5.3-10.3-8.2-15.2-11.5-20-25.6-38.8-42.7-55.8z m0 0"
        fill="#5558A6" p-id="26987"></path>
    <path
        d="M762.4 412.6s-180 181.9-186.7 186.8h192c1.9-5.4 3.5-11 5-16.5 5.9-22.3 9.3-45.6 9.3-69.7 0-10.3-0.6-20.5-1.8-30.5-2.8-24.6-8.9-48.1-17.8-70.1z m0 0"
        fill="#5C94D0" p-id="26988"></path>
    <path
        d="M495.4 619.6l135.8 135.8c5.2-2.6 10.2-5.3 15.2-8.2 19.9-11.5 38.8-25.7 55.8-42.8 7.2-7.2 13.9-15 20.3-22.8 15.3-19.3 27.6-40.2 36.9-62.1 0.1 0.1-255.8 1.4-264 0.1z m0 0"
        fill="#70C7D5" p-id="26989"></path>
    <path
        d="M425.8 577v192c5.4 1.9 11 3.6 16.5 5 22.3 5.9 45.6 9.3 69.7 9.3 10.3 0 20.5-0.6 30.4-1.8 24.5-2.8 48-8.9 70-17.8 0.1 0-181.9-180-186.6-186.7z m0 0"
        fill="#78BE5A" p-id="26990"></path>
    <path
        d="M406.6 496.9L270.9 632.7c2.6 5.2 5.4 10.3 8.2 15.2 11.5 20 25.7 38.9 42.8 55.8 7.3 7.3 15 14 22.9 20.3 19.4 15.4 40.1 27.6 62.1 36.9-0.2 0-1.6-255.8-0.3-264z m0 0"
        fill="#B3D361" p-id="26991"></path>
    <path
        d="M252 442.6c-5.9 22.3-9.3 45.6-9.3 69.7 0 10.3 0.6 20.5 1.9 30.5 2.8 24.5 8.8 48 17.8 70 0 0 180-181.9 186.7-186.7H257c-1.8 5.4-3.5 10.9-5 16.5z m0 0"
        fill="#E8D45D" p-id="26992"></path>
    <path
        d="M377 279.1c-20 11.5-38.9 25.7-55.8 42.7-7.4 7.3-14 15-20.3 22.8-15.4 19.3-27.6 40.2-37 62.1 0 0 256-1.4 264.1-0.1L392.3 271c-5.2 2.5-10.3 5.2-15.3 8.1z m0 0"
        fill="#E9AD5B" p-id="26993"></path>
</svg>