<svg t="1685083308748" class="icon" viewBox="0 0 1024 1024" version="1.1"
    xmlns="http://www.w3.org/2000/svg" p-id="28313" width="128" height="128">
    <path
        d="M512.01115 512m-443.733333 0a443.733333 443.733333 0 1 0 887.466667 0 443.733333 443.733333 0 1 0-887.466667 0Z"
        fill="#FFE9AA" p-id="28314"></path>
    <path
        d="M658.921017 434.198756L537.861461 264.237511a31.994311 31.994311 0 0 0-52.110222 0L364.623417 434.198756 224.130617 387.845689a31.903289 31.903289 0 0 0-31.721245 6.872178 32.381156 32.381156 0 0 0-9.489066 31.220622l74.092089 315.8016c1.365333 5.461333 6.303289 9.284267 11.923911 9.193244h486.035911c5.552356 0 10.4448-3.754667 11.901155-9.193244l73.819023-315.869867a32.381156 32.381156 0 0 0-9.534578-31.175111 31.903289 31.903289 0 0 0-31.630222-6.849422L658.898261 434.176z"
        fill="#FEC675" p-id="28315"></path>
    <path
        d="M658.921017 434.198756L533.014528 257.479111a11.559822 11.559822 0 0 0-21.048889 6.849422L514.423239 750.933333h240.526222c5.552356 0 10.4448-3.754667 11.901156-9.193244l73.819022-315.869867a32.381156 32.381156 0 0 0-9.534578-31.175111 31.880533 31.880533 0 0 0-31.630222-6.849422L658.875506 434.176h0.022755z"
        fill="#FFDBA5" p-id="28316"></path>
    <path
        d="M635.91515 511.908978l-106.131911 139.559822c-3.436089 5.484089-10.308267 8.783644-17.658311 8.419556h-51.632356l-44.214044-143.7696a16.657067 16.657067 0 0 0-11.764622-9.807645L386.855595 500.713244h82.511644l33.883022 105.995378 73.682489-89.201778a8.214756 8.214756 0 0 0 0.159289-7.327288 10.513067 10.513067 0 0 0-6.030222-5.233778l-13.243733-4.232534h69.245155a9.489067 9.489067 0 0 1 8.6016 3.208534 6.462578 6.462578 0 0 1 0.227556 7.964444z"
        fill="#A97539" p-id="28317"></path>
</svg>