<svg t="1699159989010" class="icon" viewBox="0 0 1024 1024" version="1.1" xmlns="http://www.w3.org/2000/svg" p-id="51865" width="128" height="128"><path d="M523.44 156.02l332.65 182.02a26.892 26.892 0 0 1 13.47 23.3c0 9.62-5.14 18.5-13.47 23.3L523.44 553.79a34.626 34.626 0 0 1-23.04 0L167.65 384.63a26.871 26.871 0 0 1-13.47-23.3c0-9.61 5.14-18.5 13.47-23.3L500.4 156.07a34.503 34.503 0 0 1 23.04 0v-0.05zM188.07 493.84l322.51 161.28 322.46-161.28c12.8-5.53 27.7 0.3 33.28 13.11 5.58 12.84-0.1 27.79-12.8 33.69L510.63 714.82 167.7 540.64c-12.7-5.9-18.38-20.85-12.8-33.69 6.24-12.1 20.47-17.7 33.28-13.11h-0.11z m0 156l322.51 161.28 322.46-161.28a25.125 25.125 0 0 1 19.39-0.42 25.087 25.087 0 0 1 13.89 13.53c5.55 12.84-0.12 27.77-12.8 33.69L510.58 870.82 167.65 696.64c-12.66-5.94-18.32-20.84-12.8-33.69 6.15-12.19 20.48-17.82 33.28-13.11h-0.06z m0 0" p-id="51866" fill="#000000"></path></svg>