<svg width="10" height="12" viewBox="0 0 10 12" fill="none" xmlns="http://www.w3.org/2000/svg">
<mask id="mask0_1_3442" style="mask-type:luminance" maskUnits="userSpaceOnUse" x="0" y="0" width="10" height="12">
<path d="M6.9441 0.255846C6.9441 0.396974 6.91109 0.530674 6.85414 0.650344C6.8038 0.785695 6.71632 0.909491 6.54548 1.01389C6.45057 1.07992 6.34245 1.12737 6.22609 1.15378C5.97189 1.23425 5.61949 1.29409 5.12843 1.32586C3.65939 1.42077 3.00122 2.11981 2.70411 2.95791C2.50727 3.51417 2.41855 3.89711 2.26917 4.0597L2.2667 4.06094C2.23176 4.09642 2.18798 4.12193 2.13988 4.13485C2.09179 4.14776 2.04112 4.1476 1.99311 4.13439C1.81526 4.08322 1.79503 3.92476 1.80618 3.80839C1.84208 3.4271 1.89407 2.97772 1.89407 2.97772C1.18555 3.42545 1.57385 4.06589 1.11003 4.90605C1.08569 4.95021 1.06051 4.99188 1.03493 5.03191C0.872758 5.21802 0.726267 5.41774 0.598345 5.63026C0.459273 5.83765 0.349958 6.0635 0.273589 6.30124C0.0924844 6.77773 -0.000228415 7.28324 4.22584e-07 7.79298C4.22584e-07 10.1162 1.88334 12 4.20657 12C6.25745 12 7.96459 10.5318 8.33721 8.58941C8.34767 8.55629 8.35594 8.52251 8.36197 8.48831C8.54519 7.40963 8.81258 7.02297 8.98507 6.71802C10.0365 4.86396 9.17943 3.70935 8.45482 3.21664C8.50513 3.32359 8.51695 3.44463 8.48831 3.5593C8.45966 3.67397 8.39229 3.77522 8.2976 3.84594C8.26006 3.88559 8.2141 3.91631 8.1631 3.93581C8.1121 3.9553 8.05738 3.96309 8.00296 3.9586C7.68068 3.93962 7.48302 3.74773 7.47271 3.45516L7.47188 3.43453V3.42875C7.47188 3.27895 7.51934 3.1044 7.62374 2.91293C8.36197 1.55983 7.77848 0.533563 6.90737 0C6.9309 0.081293 6.9441 0.166713 6.9441 0.255846Z" fill="white"/>
</mask>
<g mask="url(#mask0_1_3442)">
<path fill-rule="evenodd" clip-rule="evenodd" d="M6.9441 0.255846C6.9441 0.396974 6.91109 0.530674 6.85414 0.650344C6.8038 0.785695 6.71632 0.909491 6.54548 1.01389C6.45057 1.07992 6.34245 1.12737 6.22609 1.15378C5.97189 1.23425 5.61949 1.29409 5.12843 1.32586C3.65939 1.42077 3.00122 2.11981 2.70411 2.95791C2.50727 3.51417 2.41855 3.89711 2.26917 4.0597L2.26669 4.06094C2.23176 4.09642 2.18798 4.12193 2.13988 4.13485C2.09179 4.14776 2.04112 4.1476 1.99311 4.13439C1.81526 4.08322 1.79503 3.92476 1.80618 3.80839C1.84208 3.4271 1.89407 2.97772 1.89407 2.97772C1.18555 3.42545 1.57385 4.06589 1.11003 4.90605C1.08569 4.95021 1.06051 4.99188 1.03493 5.03191C0.872758 5.21802 0.726267 5.41774 0.598345 5.63026C0.459273 5.83765 0.349958 6.0635 0.273589 6.30124C0.0924844 6.77773 -0.000228415 7.28324 4.22584e-07 7.79299C4.22584e-07 10.1162 1.88334 12 4.20657 12C6.25745 12 7.96459 10.5318 8.33721 8.58941C8.34767 8.55629 8.35594 8.52251 8.36197 8.48831C8.54519 7.40963 8.81259 7.02297 8.98507 6.71802C10.0365 4.86396 9.17943 3.70935 8.45482 3.21664C8.50513 3.32359 8.51695 3.44463 8.48831 3.5593C8.45966 3.67397 8.39229 3.77522 8.2976 3.84594C8.26006 3.88559 8.2141 3.91631 8.1631 3.93581C8.1121 3.9553 8.05738 3.96309 8.00296 3.9586C7.68068 3.93962 7.48302 3.74773 7.47271 3.45516L7.47188 3.43453V3.42875C7.47188 3.27895 7.51934 3.1044 7.62374 2.91293C8.36197 1.55983 7.77848 0.533563 6.90737 0C6.9309 0.081293 6.9441 0.166713 6.9441 0.255846Z" fill="url(#paint0_linear_1_3442)"/>
</g>
<defs>
<linearGradient id="paint0_linear_1_3442" x1="6.47161" y1="0.676754" x2="2.30089" y2="9.48195" gradientUnits="userSpaceOnUse">
<stop stop-color="#FF332A"/>
<stop offset="1" stop-color="#FF7414"/>
</linearGradient>
</defs>
</svg>
